<svg xmlns="http://www.w3.org/2000/svg" viewBox="0 0 200 200" width="200" height="200">
  <!-- Outer ring of dots - larger, more visible -->
  <g>
    <!-- Gold/amber dots (right arc) -->
    <circle cx="138" cy="30" r="5" fill="#C98B27"/>
    <circle cx="152" cy="45" r="4" fill="#C98B27" opacity="0.9"/>
    <circle cx="162" cy="63" r="5.5" fill="#C98B27"/>
    <circle cx="168" cy="82" r="4.5" fill="#C98B27" opacity="0.85"/>
    <circle cx="169" cy="102" r="5" fill="#C98B27"/>
    <circle cx="165" cy="122" r="4" fill="#C98B27" opacity="0.9"/>
    <circle cx="155" cy="140" r="5.5" fill="#C98B27"/>
    <circle cx="142" cy="154" r="4.5" fill="#C98B27" opacity="0.85"/>

    <!-- Gray/slate dots (left arc) -->
    <circle cx="62" cy="30" r="5" fill="#9296B2"/>
    <circle cx="48" cy="45" r="4" fill="#9296B2" opacity="0.9"/>
    <circle cx="38" cy="63" r="5.5" fill="#9296B2"/>
    <circle cx="32" cy="82" r="4.5" fill="#9296B2" opacity="0.85"/>
    <circle cx="31" cy="102" r="5" fill="#9296B2"/>
    <circle cx="35" cy="122" r="4" fill="#9296B2" opacity="0.9"/>
    <circle cx="45" cy="140" r="5.5" fill="#9296B2"/>
    <circle cx="58" cy="154" r="4.5" fill="#9296B2" opacity="0.85"/>

    <!-- Top/bottom arc dots -->
    <circle cx="80" cy="20" r="4" fill="#C6B78A"/>
    <circle cx="100" cy="16" r="5" fill="#C98B27"/>
    <circle cx="120" cy="20" r="4" fill="#C6B78A"/>

    <circle cx="80" cy="165" r="4" fill="#C6B78A"/>
    <circle cx="100" cy="169" r="5" fill="#9296B2"/>
    <circle cx="120" cy="165" r="4" fill="#C6B78A"/>

    <!-- Scattered accent dots -->
    <circle cx="72" cy="25" r="3" fill="#C98B27" opacity="0.6"/>
    <circle cx="128" cy="25" r="3" fill="#9296B2" opacity="0.6"/>
    <circle cx="174" cy="93" r="3" fill="#C98B27" opacity="0.5"/>
    <circle cx="26" cy="93" r="3" fill="#9296B2" opacity="0.5"/>
    <circle cx="128" cy="162" r="3" fill="#C98B27" opacity="0.6"/>
    <circle cx="72" cy="162" r="3" fill="#9296B2" opacity="0.6"/>
  </g>

  <!-- Inner ring -->
  <circle cx="100" cy="93" r="52" fill="none" stroke="white" stroke-width="1.5" opacity="0.3"/>

  <!-- CHRYSELYS text - white for visibility on dark backgrounds -->
  <text x="100" y="193" text-anchor="middle" font-family="Roboto Slab, Georgia, serif" font-weight="700" font-size="20" fill="white" letter-spacing="3">CHRYSELYS</text>
</svg>
