<svg xmlns="http://www.w3.org/2000/svg" viewBox="0 0 200 220" width="200" height="220">
  <!-- Outer ring of dots -->
  <g opacity="0.7">
    <!-- Gold/amber dots (right side) -->
    <circle cx="140" cy="40" r="2.5" fill="#C98B27"/>
    <circle cx="150" cy="50" r="2" fill="#C98B27"/>
    <circle cx="158" cy="62" r="2.5" fill="#C98B27"/>
    <circle cx="163" cy="75" r="2" fill="#C98B27"/>
    <circle cx="166" cy="88" r="2.5" fill="#C98B27"/>
    <circle cx="167" cy="100" r="2" fill="#C98B27"/>
    <circle cx="165" cy="112" r="2.5" fill="#C98B27"/>
    <circle cx="160" cy="125" r="2" fill="#C98B27"/>
    <circle cx="153" cy="136" r="2.5" fill="#C98B27"/>
    <circle cx="145" cy="146" r="2" fill="#C98B27"/>
    <!-- Blue/navy dots (left side) -->
    <circle cx="60" cy="40" r="2.5" fill="#004567"/>
    <circle cx="50" cy="50" r="2" fill="#004567"/>
    <circle cx="42" cy="62" r="2.5" fill="#004567"/>
    <circle cx="37" cy="75" r="2" fill="#004567"/>
    <circle cx="34" cy="88" r="2.5" fill="#004567"/>
    <circle cx="33" cy="100" r="2" fill="#004567"/>
    <circle cx="35" cy="112" r="2.5" fill="#004567"/>
    <circle cx="40" cy="125" r="2" fill="#004567"/>
    <circle cx="47" cy="136" r="2.5" fill="#004567"/>
    <circle cx="55" cy="146" r="2" fill="#004567"/>
    <!-- Mixed dots (top/bottom) -->
    <circle cx="80" cy="28" r="2" fill="#9296B2"/>
    <circle cx="100" cy="25" r="2.5" fill="#9296B2"/>
    <circle cx="120" cy="28" r="2" fill="#9296B2"/>
    <circle cx="80" cy="158" r="2" fill="#9296B2"/>
    <circle cx="100" cy="161" r="2.5" fill="#9296B2"/>
    <circle cx="120" cy="158" r="2" fill="#9296B2"/>
    <!-- More scattered dots -->
    <circle cx="70" cy="32" r="1.5" fill="#C98B27" opacity="0.5"/>
    <circle cx="130" cy="32" r="1.5" fill="#004567" opacity="0.5"/>
    <circle cx="170" cy="95" r="1.5" fill="#C98B27" opacity="0.4"/>
    <circle cx="30" cy="95" r="1.5" fill="#004567" opacity="0.4"/>
    <circle cx="65" cy="155" r="1.5" fill="#C98B27" opacity="0.5"/>
    <circle cx="135" cy="155" r="1.5" fill="#004567" opacity="0.5"/>
  </g>
  <!-- Inner ring -->
  <circle cx="100" cy="93" r="50" fill="none" stroke="#EAECEC" stroke-width="1" opacity="0.5"/>
  <!-- CHRYSELYS text -->
  <text x="100" y="195" text-anchor="middle" font-family="Roboto Slab, Georgia, serif" font-weight="700" font-size="22" fill="#004567" letter-spacing="3">CHRYSELYS</text>
  <!-- Tagline -->
  <text x="100" y="213" text-anchor="middle" font-family="Roboto Slab, Georgia, serif" font-weight="400" font-size="9" fill="#9296B2" letter-spacing="1">Data Impacts Lives</text>
</svg>
